<svg id="Capa_2" data-name="Capa 2" xmlns="http://www.w3.org/2000/svg" viewBox="0 0 1483.79 686"><path d="M717.69,783.21V880h-49.5V645H831.76v41.48H717.69v55.31h97.86v41.42Z" transform="translate(-197 -194)"/><path d="M1012.29,789.09c0,50-40.91,90.91-90.9,90.91s-90.91-40.91-90.91-90.91V698.31h49v94.43a41.89,41.89,0,1,0,83.77,0V698.31h49Z" transform="translate(-197 -194)"/><path d="M1076.5,785.38V880h-49.12V789c0-48.94,39.12-89.19,87.62-91v45.55A42.1,42.1,0,0,0,1076.5,785.38Z" transform="translate(-197 -194)"/><path d="M1586.5,785.38V880h-49.12V789c0-48.94,39.12-89.19,87.62-91v45.55A42.1,42.1,0,0,0,1586.5,785.38Z" transform="translate(-197 -194)"/><path d="M1496.34,852.89l-2.12,2.11a91.7,91.7,0,0,1-28.65,17.89A104.08,104.08,0,0,1,1426.5,880a100.53,100.53,0,0,1-38.4-7.22,92.53,92.53,0,0,1-30-19.48,87.88,87.88,0,0,1-19.5-28.84,93.26,93.26,0,0,1-.12-70.75,87.91,87.91,0,0,1,19.57-29,92.62,92.62,0,0,1,30.08-19.53,107.78,107.78,0,0,1,77.57,0,92,92,0,0,1,30.19,19.53,88.79,88.79,0,0,1,19.63,29,86.56,86.56,0,0,1,4.47,13.6,93,93,0,0,1,2.5,21.74,95.81,95.81,0,0,1-.92,13.43H1378.88l1.36,4.36c.37,1.19.79,2.37,1.25,3.52A50.2,50.2,0,0,0,1392.12,827a47.3,47.3,0,0,0,15.82,10.8,51.54,51.54,0,0,0,38.65,0A45.8,45.8,0,0,0,1462.26,827l.9-1h51.58A87.53,87.53,0,0,1,1496.34,852.89Zm-24.79-87.75a49.53,49.53,0,0,0-9.37-13.83,46.92,46.92,0,0,0-15.76-10.75,51.54,51.54,0,0,0-38.65,0,46.84,46.84,0,0,0-15.71,10.74,48.86,48.86,0,0,0-9.43,13.84l-2.18,4.75h93.28Z" transform="translate(-197 -194)"/><path d="M1680.79,852.92a27.08,27.08,0,1,1-27.07-27.07A27.07,27.07,0,0,1,1680.79,852.92Z" transform="translate(-197 -194)"/><polygon points="470 0 380 129 470 129 470 0"/><path d="M728,464l-61-84L521,344V194L197,644H343V819L482,699,610,812V592H784l48-85Zm-143.28,2a27.08,27.08,0,1,1,27.07-27.08A27.07,27.07,0,0,1,584.72,466Z" transform="translate(-197 -194)"/><path d="M1272,645v72.64a90,90,0,1,0,0,144.72V880h46V645Zm-53.52,198a53,53,0,1,1,53-53A53,53,0,0,1,1218.48,843Z" transform="translate(-197 -194)"/></svg>